<svg width="2032" height="571" viewBox="0 0 2032 571" fill="none" xmlns="http://www.w3.org/2000/svg">
<path d="M570.021 472.051L478.174 570.021H0V333.995V97.97L91.8468 0H570.021V472.051ZM91.2031 148.853V511.594H360.031L360.13 511.493L478.717 392.098L478.818 391.997V177.343L478.717 177.247L360.808 58.5273L360.707 58.4265H181.529L91.2031 148.853ZM319.471 156.894L379.205 216.692V352.65L379.107 352.747L320.053 412.548H190.142V156.793H319.372L319.471 156.894Z" fill="#84B8D9"/>
<path d="M672.062 493.545V77.1713H805.77C871.061 77.1713 921.299 95.351 956.486 131.71C991.672 167.679 1009.27 219.09 1009.27 285.944C1009.27 352.408 991.867 403.624 957.072 439.592C922.667 475.56 873.406 493.545 809.289 493.545H672.062ZM735.397 435.487H805.77C851.903 435.487 886.308 423.172 908.984 398.541C932.051 373.52 943.584 335.987 943.584 285.944C943.584 235.119 932.051 197.392 908.984 172.761C886.308 147.74 851.903 135.229 805.77 135.229H735.397V435.487Z" fill="white"/>
<path d="M1214.4 500.582C1184.69 500.582 1158.69 493.935 1136.4 480.643C1114.12 467.35 1096.92 448.389 1084.8 423.758C1072.68 399.128 1066.62 370.392 1066.62 337.551C1066.62 304.32 1072.68 275.584 1084.8 251.344C1096.92 227.105 1114.12 208.339 1136.4 195.046C1158.69 181.362 1184.69 174.521 1214.4 174.521C1244.11 174.521 1270.11 181.362 1292.4 195.046C1314.68 208.339 1331.88 227.105 1344 251.344C1356.12 275.584 1362.18 304.32 1362.18 337.551C1362.18 370.392 1356.12 399.128 1344 423.758C1331.88 448.389 1314.68 467.35 1292.4 480.643C1270.11 493.935 1244.11 500.582 1214.4 500.582ZM1214.4 446.629C1240.99 446.629 1261.51 437.051 1275.98 417.894C1290.44 398.346 1297.68 371.565 1297.68 337.551C1297.68 303.538 1290.44 276.952 1275.98 257.795C1261.51 238.247 1240.99 228.473 1214.4 228.473C1188.21 228.473 1167.68 238.247 1152.82 257.795C1138.36 276.952 1131.13 303.538 1131.13 337.551C1131.13 371.565 1138.36 398.346 1152.82 417.894C1167.68 437.051 1188.21 446.629 1214.4 446.629Z" fill="white"/>
<path d="M1425.01 493.545V77.1713H1487.17V335.792L1627.33 181.558H1705.91L1583.93 312.921L1710.6 493.545H1639.06L1542.29 351.626L1487.17 410.27V493.545H1425.01Z" fill="white"/>
<path d="M1841.69 500.582C1809.24 500.582 1783.24 493.154 1763.69 478.297C1744.53 463.441 1734.95 442.524 1734.95 415.548C1734.95 388.572 1742.97 367.655 1759 352.799C1775.42 337.551 1800.64 326.604 1834.65 319.958L1941.97 299.432C1941.97 275.193 1936.3 257.209 1924.96 245.48C1913.62 233.36 1896.81 227.3 1874.53 227.3C1854.59 227.3 1838.95 231.796 1827.61 240.788C1816.27 249.39 1808.45 262.291 1804.15 279.493L1740.23 275.388C1746.1 244.112 1760.56 219.481 1783.63 201.497C1807.09 183.513 1837.39 174.521 1874.53 174.521C1916.75 174.521 1948.81 185.858 1970.7 208.534C1992.99 230.819 2004.13 262.291 2004.13 302.951V424.344C2004.13 431.773 2005.3 437.051 2007.65 440.178C2010.39 442.915 2014.69 444.283 2020.55 444.283H2031.69V493.545C2029.74 493.936 2026.61 494.326 2022.31 494.717C2018.01 495.108 2013.51 495.304 2008.82 495.304C1995.53 495.304 1984 493.154 1974.22 488.853C1964.84 484.552 1957.8 477.515 1953.11 467.741C1948.42 457.576 1946.07 444.088 1946.07 427.277L1952.52 430.209C1949.4 443.893 1942.55 456.012 1932 466.568C1921.83 477.124 1908.74 485.53 1892.71 491.785C1877.07 497.65 1860.06 500.582 1841.69 500.582ZM1851.66 451.321C1870.42 451.321 1886.45 447.802 1899.74 440.765C1913.04 433.337 1923.4 423.172 1930.83 410.27C1938.25 397.368 1941.97 382.707 1941.97 366.287V346.348L1850.48 363.941C1831.72 367.46 1818.42 373.129 1810.6 380.948C1803.18 388.376 1799.46 397.955 1799.46 409.683C1799.46 422.976 1803.96 433.337 1812.95 440.765C1822.33 447.802 1835.24 451.321 1851.66 451.321Z" fill="white"/>
</svg>
